<svg width="20" height="20" viewBox="0 0 20 20" fill="none" xmlns="http://www.w3.org/2000/svg">
<g id="Bell">
<path id="Combined Shape" fill-rule="evenodd" clip-rule="evenodd" d="M14.1667 4.1665V3.33317C14.1667 2.4127 13.4205 1.6665 12.5 1.6665H7.5C6.57952 1.6665 5.83333 2.4127 5.83333 3.33317V4.1665H3.33333C2.8731 4.1665 2.5 4.5396 2.5 4.99984C2.5 5.46007 2.8731 5.83317 3.33333 5.83317H4.16667V14.9998C4.16667 16.3806 5.28596 17.4998 6.66667 17.4998H13.3333C14.7141 17.4998 15.8333 16.3806 15.8333 14.9998V5.83317H16.6667C17.1269 5.83317 17.5 5.46007 17.5 4.99984C17.5 4.5396 17.1269 4.1665 16.6667 4.1665H14.1667ZM12.5 3.33317H7.5V4.1665H12.5V3.33317ZM14.1667 5.83317H5.83333V14.9998C5.83333 15.4601 6.20643 15.8332 6.66667 15.8332H13.3333C13.7936 15.8332 14.1667 15.4601 14.1667 14.9998V5.83317ZM7.5 7.49984H9.16667V14.1665H7.5V7.49984ZM12.5 7.49984H10.8333V14.1665H12.5V7.49984Z" fill="white"/>
</g>
</svg>
