<svg width="14" height="8" viewBox="0 0 14 8" fill="none" xmlns="http://www.w3.org/2000/svg">
<path fill-rule="evenodd" clip-rule="evenodd" d="M13.3533 0.766667C13.1471 0.647579 12.8929 0.647579 12.6867 0.766667L10.3333 1.92667C10.2939 0.850837 9.40988 -0.000723457 8.33333 4.61212e-07H2.33333C1.22876 4.61212e-07 0.333328 0.895431 0.333328 2V6C0.333328 7.10457 1.22876 8 2.33333 8H8.33333C9.40988 8.00072 10.2939 7.14916 10.3333 6.07333L12.7067 7.26C12.7975 7.30659 12.8979 7.33168 13 7.33333C13.1248 7.33373 13.2472 7.29909 13.3533 7.23333C13.5487 7.11126 13.6671 6.897 13.6667 6.66667V1.33333C13.6671 1.103 13.5487 0.888744 13.3533 0.766667ZM8.99999 6C8.99999 6.36819 8.70152 6.66667 8.33333 6.66667H2.33333C1.96514 6.66667 1.66666 6.36819 1.66666 6V2C1.66666 1.63181 1.96514 1.33333 2.33333 1.33333H8.33333C8.70152 1.33333 8.99999 1.63181 8.99999 2V6ZM12.3333 5.58667L10.3333 4.58667V3.41333L12.3333 2.41333V5.58667Z" fill="#8F92A1"/>
</svg>
