<svg width="16" height="12" viewBox="0 0 16 12" fill="none" xmlns="http://www.w3.org/2000/svg">
<path fill-rule="evenodd" clip-rule="evenodd" d="M13.4469 0L13.4443 0.00302C14.4973 0.06056 15.3334 0.93264 15.3334 2V10C15.3334 11.1046 14.438 12 13.3334 12H2.66675C1.56218 12 0.666748 11.1046 0.666748 10V2C0.666748 0.895433 1.56218 0 2.66675 0H13.4469ZM6.98435 1.33333H10.9843L8.72608 4H4.72608L6.98435 1.33333ZM3.39274 4L5.65104 1.33333H2.66675C2.29856 1.33333 2.00008 1.63181 2.00008 2V4H3.39274ZM2.00008 5.33333V10C2.00008 10.3682 2.29856 10.6667 2.66675 10.6667H13.3334C13.7016 10.6667 14.0001 10.3682 14.0001 10V5.33333H2.00008ZM14.0001 4V2C14.0001 1.63181 13.7016 1.33333 13.3334 1.33333H12.3177L10.0594 4H14.0001Z" fill="#171717"/>
</svg>
