<svg width="18" height="18" viewBox="0 0 18 18" fill="white" xmlns="http://www.w3.org/2000/svg">
<path fill-rule="evenodd" clip-rule="nonzero" d="M 4 0 C 6.2 0 8 1.8 8 4 C 8 6.2 6.2 8 4 8 C 1.8 8 0 6.2 0 4 C 0 1.8 1.8 0 4 0 Z M 4 2 C 2.9 2 2 2.9 2 4 C 2 5.1 2.9 6 4 6 C 5.1 6 6 5.1 6 4 C 6 2.9 5.1 2 4 2 Z M 14 0 C 16.2 0 18 1.8 18 4 C 18 6.2 16.2 8 14 8 C 11.8 8 10 6.2 10 4 C 10 1.8 11.8 0 14 0 Z M 14 2 C 12.9 2 12 2.9 12 4 C 12 5.1 12.9 6 14 6 C 15.1 6 16 5.1 16 4 C 16 2.9 15.1 2 14 2 Z M 8 14 C 8 11.8 6.2 10 4 10 C 1.8 10 0 11.8 0 14 C 0 16.2 1.8 18 4 18 C 6.2 18 8 16.2 8 14 Z M 2 14 C 2 12.9 2.9 12 4 12 C 5.1 12 6 12.9 6 14 C 6 15.1 5.1 16 4 16 C 2.9 16 2 15.1 2 14 Z M 14 10 C 16.2 10 18 11.8 18 14 C 18 16.2 16.2 18 14 18 C 11.8 18 10 16.2 10 14 C 10 11.8 11.8 10 14 10 Z M 14 12 C 12.9 12 12 12.9 12 14 C 12 15.1 12.9 16 14 16 C 15.1 16 16 15.1 16 14 C 16 12.9 15.1 12 14 12 Z" fill="#8F92A1"/>
</svg>
