<svg width="24" height="18" viewBox="0 0 24 18" fill="none" xmlns="http://www.w3.org/2000/svg">
<path d="M12 0C17.5915 4.56585e-05 22.29 3.82435 23.6221 9C23.1226 10.9405 22.1485 12.6899 20.833 14.1201C21.6139 14.6293 22.2152 15.024 22.665 15.3223C23.0368 15.5688 23.3072 15.7502 23.4902 15.876C23.5813 15.9385 23.6531 15.989 23.7061 16.0273C23.7434 16.0544 23.8089 16.1019 23.8535 16.1465L23.1465 16.8535C23.1703 16.8773 23.1789 16.8804 23.1201 16.8379C23.0768 16.8066 23.0123 16.761 22.9238 16.7002C22.7474 16.579 22.4823 16.4006 22.1123 16.1553C21.6318 15.8367 20.9758 15.4069 20.1094 14.8428C17.9736 16.8025 15.1271 18 12 18C6.40846 18 1.71006 14.1757 0.37793 9C0.87047 7.08635 1.82343 5.35765 3.11133 3.93848C2.34529 3.45048 1.55269 2.94448 0.731445 2.42188L1.26855 1.57812C2.15519 2.14235 3.00864 2.68699 3.83105 3.21094C5.97325 1.21901 8.84406 0 12 0ZM4.82715 5.03223C3.75219 6.13829 2.9305 7.49194 2.45703 9C3.73112 13.0581 7.52441 16 12 16C14.418 16 16.6353 15.1395 18.3652 13.71C17.4295 13.1043 16.3336 12.3978 15.0576 11.5771C14.3239 12.4468 13.2269 13 12 13C9.79084 13 8 11.2091 8 9C8 8.39163 8.13594 7.81509 8.37891 7.29883C7.27261 6.59196 6.0901 5.83746 4.82715 5.03223ZM12 2C9.55957 2 7.32278 2.87569 5.58594 4.3291C6.76503 5.08094 7.87322 5.78811 8.91406 6.45312C9.64774 5.56521 10.7582 5 12 5C14.2091 5.00005 16 6.79089 16 9C16 9.62308 15.8567 10.2125 15.6025 10.7383C16.9468 11.6027 18.0913 12.3409 19.0596 12.9678C19.0824 12.9826 19.1053 12.9971 19.1279 13.0117C20.2244 11.8975 21.0631 10.5285 21.543 9C20.269 4.94189 16.4755 2.00004 12 2ZM10.0928 8.39453C10.0322 8.58549 10 8.78899 10 9C10 10.1046 10.8954 11 12 11C12.5182 11 12.9885 10.8009 13.3438 10.4775C12.3528 9.84164 11.2715 9.14861 10.0928 8.39453ZM12 7C11.4679 7 10.9853 7.20896 10.627 7.54785C11.8114 8.30555 12.8974 9.00206 13.8926 9.64062C13.9607 9.43929 14 9.22434 14 9C14 7.89543 13.1045 7.00005 12 7Z" fill="#8F92A1"/>
</svg>
