<svg width="14" height="14" viewBox="0 0 14 14" fill="none" xmlns="http://www.w3.org/2000/svg">
<path fill-rule="evenodd" clip-rule="evenodd" d="M9.57985 8.53208L12.2499 5.76646L8.56766 5.19789L7.00001 1.8226L5.43237 5.19789L1.75013 5.76646L4.42018 8.53208L3.8084 12.3224L7.00001 10.5394L10.1916 12.3224L9.57985 8.53208ZM9.49503 13.7292L6.9999 12.3635L4.50476 13.7292C3.11512 14.4899 1.89706 13.5659 2.16209 11.9572L2.63861 9.0645L0.620009 7.0159C-0.504237 5.87495 -0.0366463 4.38334 1.51483 4.14863L4.30447 3.72659L5.55204 1.09476C5.90103 0.358533 6.45407 -0.0049312 7.00657 5.05167e-05C7.557 0.00501363 8.10688 0.375676 8.45392 1.10777L9.69532 3.72659L12.485 4.14863C14.0386 4.38368 14.5024 5.87656 13.3798 7.0159L11.3612 9.0645L11.8377 11.9572C12.1031 13.5682 10.8827 14.4888 9.49503 13.7292Z" fill="#8F92A1"/>
</svg>
