<svg width="16" height="12" viewBox="0 0 16 12" fill="none" xmlns="http://www.w3.org/2000/svg">
<path fill-rule="evenodd" clip-rule="evenodd" d="M0.666748 2C0.666748 0.895433 1.56218 0 2.66675 0H13.3334C14.438 0 15.3334 0.895433 15.3334 2V10C15.3334 11.1046 14.438 12 13.3334 12H2.66675C1.56218 12 0.666748 11.1046 0.666748 10V2ZM2.66675 1.33333H13.3334C13.7016 1.33333 14.0001 1.63181 14.0001 2V10C14.0001 10.3682 13.7016 10.6667 13.3334 10.6667H2.66675C2.29856 10.6667 2.00008 10.3682 2.00008 10V2C2.00008 1.63181 2.29856 1.33333 2.66675 1.33333ZM12.0001 5.33333C12.3683 5.33333 12.6667 5.6318 12.6667 6C12.6667 6.3682 12.3683 6.66667 12.0001 6.66667H6.66675C6.29856 6.66667 6.00008 6.3682 6.00008 6C6.00008 5.6318 6.29856 5.33333 6.66675 5.33333H12.0001ZM3.33341 8.66667C3.33341 8.29847 3.63189 8 4.00008 8H9.33342C9.70161 8 10.0001 8.29847 10.0001 8.66667C10.0001 9.03487 9.70161 9.33333 9.33342 9.33333H4.00008C3.63189 9.33333 3.33341 9.03487 3.33341 8.66667ZM11.3334 8C10.9652 8 10.6667 8.29847 10.6667 8.66667C10.6667 9.03487 10.9652 9.33333 11.3334 9.33333H12.0001C12.3683 9.33333 12.6667 9.03487 12.6667 8.66667C12.6667 8.29847 12.3683 8 12.0001 8H11.3334ZM4.66675 5.33333C5.03493 5.33333 5.33342 5.6318 5.33342 6C5.33342 6.3682 5.03493 6.66667 4.66675 6.66667H4.00008C3.63189 6.66667 3.33341 6.3682 3.33341 6C3.33341 5.6318 3.63189 5.33333 4.00008 5.33333H4.66675Z" fill="#171717"/>
</svg>
