<svg width="80" height="80" viewBox="0 0 80 80" fill="none" xmlns="http://www.w3.org/2000/svg">
<mask id="mask0_926_20264" style="mask-type:alpha" maskUnits="userSpaceOnUse" x="0" y="0" width="80" height="80">
<path d="M0 31.2176C0 20.1753 0 14.6541 2.18303 10.4516C4.02266 6.9102 6.9102 4.02266 10.4516 2.18303C14.6541 0 20.1753 0 31.2176 0H48.7824C59.8247 0 65.3459 0 69.5484 2.18303C73.0898 4.02266 75.9773 6.9102 77.817 10.4516C80 14.6541 80 20.1753 80 31.2176V48.7824C80 59.8247 80 65.3459 77.817 69.5484C75.9773 73.0898 73.0898 75.9773 69.5484 77.817C65.3459 80 59.8247 80 48.7824 80H31.2176C20.1753 80 14.6541 80 10.4516 77.817C6.9102 75.9773 4.02266 73.0898 2.18303 69.5484C0 65.3459 0 59.8247 0 48.7824V31.2176Z" fill="#C4C4C4"/>
</mask>
<g mask="url(#mask0_926_20264)">
<rect width="80" height="80" fill="#F18D8D"/>
<rect width="80" height="80" fill="#7E2DFC"/>
<path fill-rule="evenodd" clip-rule="evenodd" d="M39.9609 61.3281C49.3023 61.3281 56.875 53.891 56.875 44.7168C56.875 35.5426 49.3023 28.1055 39.9609 28.1055C30.6196 28.1055 23.0469 35.5426 23.0469 44.7168C23.0469 53.891 30.6196 61.3281 39.9609 61.3281ZM35.2672 52.9305L48.1474 45.1735C48.2307 45.1234 48.2989 45.0554 48.3461 44.9758C48.3933 44.8961 48.418 44.8072 48.418 44.7168C48.418 44.6264 48.3933 44.5375 48.3461 44.4578C48.2989 44.3782 48.2307 44.3102 48.1474 44.2601L35.2672 36.5031C35.1757 36.4481 35.0694 36.4165 34.9596 36.4118C34.8498 36.407 34.7406 36.4293 34.6437 36.4761C34.5468 36.523 34.4658 36.5927 34.4093 36.6779C34.3528 36.763 34.323 36.8605 34.3229 36.9598V52.4738C34.323 52.5731 34.3528 52.6705 34.4093 52.7557C34.4658 52.8409 34.5468 52.9106 34.6437 52.9575C34.7406 53.0043 34.8498 53.0266 34.9596 53.0218C35.0694 53.0171 35.1757 52.9855 35.2672 52.9305Z" fill="white"/>
<path d="M32.9134 25.3369C35.2488 25.3369 37.1419 23.4776 37.1419 21.1841C37.1419 18.8905 35.2488 17.0312 32.9134 17.0312C30.5781 17.0312 28.6849 18.8905 28.6849 21.1841C28.6849 23.4776 30.5781 25.3369 32.9134 25.3369Z" fill="white"/>
<path d="M51.237 21.1841C51.237 23.4776 49.3438 25.3369 47.0085 25.3369C44.6731 25.3369 42.7799 23.4776 42.7799 21.1841C42.7799 18.8905 44.6731 17.0312 47.0085 17.0312C49.3438 17.0312 51.237 18.8905 51.237 21.1841Z" fill="white"/>
</g>
</svg>
